<svg width="376" height="75" viewBox="0 0 376 75" fill="none" xmlns="http://www.w3.org/2000/svg">
<circle cx="37.3675" cy="37.6444" r="32.5944" stroke="black" stroke-width="8.14861"/>
<path d="M19.3163 38.6658C19.3163 34.6346 20.1366 31.119 21.7772 28.119C23.4178 25.0721 25.6913 22.7284 28.5975 21.0878C31.5037 19.4003 34.8318 18.5565 38.5818 18.5565C43.4099 18.5565 47.3943 19.7753 50.5349 22.2127C53.7224 24.6034 55.8552 27.9783 56.9333 32.3377H46.3161C45.7536 30.6502 44.7927 29.3377 43.4333 28.4002C42.1209 27.4158 40.4802 26.9237 38.5115 26.9237C35.699 26.9237 33.4725 27.9549 31.8318 30.0174C30.1912 32.033 29.3709 34.9158 29.3709 38.6658C29.3709 42.3689 30.1912 45.2517 31.8318 47.3142C33.4725 49.3298 35.699 50.3376 38.5115 50.3376C42.4959 50.3376 45.0974 48.5564 46.3161 44.9939H56.9333C55.8552 49.2126 53.7224 52.5641 50.5349 55.0485C47.3474 57.5329 43.363 58.7751 38.5818 58.7751C34.8318 58.7751 31.5037 57.9547 28.5975 56.3141C25.6913 54.6266 23.4178 52.2829 21.7772 49.2829C20.1366 46.2361 19.3163 42.697 19.3163 38.6658Z" fill="black"/>
<path d="M98.1955 58.7751C94.4455 58.7751 91.0705 57.9547 88.0706 56.3141C85.0706 54.6266 82.7034 52.2595 80.969 49.2126C79.2815 46.1657 78.4378 42.6501 78.4378 38.6658C78.4378 34.6814 79.305 31.1658 81.0394 28.119C82.8206 25.0721 85.2346 22.7284 88.2815 21.0878C91.3284 19.4003 94.7268 18.5565 98.4768 18.5565C102.227 18.5565 105.625 19.4003 108.672 21.0878C111.719 22.7284 114.109 25.0721 115.844 28.119C117.625 31.1658 118.516 34.6814 118.516 38.6658C118.516 42.6501 117.602 46.1657 115.774 49.2126C113.992 52.2595 111.555 54.6266 108.461 56.3141C105.414 57.9547 101.992 58.7751 98.1955 58.7751ZM98.1955 50.197C99.9768 50.197 101.641 49.7751 103.188 48.9314C104.781 48.0407 106.047 46.7282 106.985 44.9939C107.922 43.2595 108.391 41.1501 108.391 38.6658C108.391 34.9627 107.406 32.1268 105.438 30.158C103.516 28.1424 101.149 27.1346 98.3361 27.1346C95.5237 27.1346 93.1565 28.1424 91.2346 30.158C89.3596 32.1268 88.4221 34.9627 88.4221 38.6658C88.4221 42.3689 89.3362 45.2282 91.1643 47.2439C93.0393 49.2126 95.383 50.197 98.1955 50.197Z" fill="black"/>
<path d="M135.58 6.11127V58.1422H125.736V6.11127H135.58Z" fill="black"/>
<path d="M155.149 6.11127V58.1422H145.306V6.11127H155.149Z" fill="black"/>
<path d="M201.086 37.822C201.086 39.2283 200.992 40.4939 200.805 41.6189H172.328C172.562 44.4314 173.547 46.6345 175.281 48.2282C177.016 49.822 179.148 50.6188 181.68 50.6188C185.336 50.6188 187.937 49.0485 189.484 45.9079H200.101C198.976 49.6579 196.82 52.7516 193.633 55.1891C190.445 57.5797 186.531 58.7751 181.891 58.7751C178.141 58.7751 174.766 57.9547 171.766 56.3141C168.813 54.6266 166.492 52.2595 164.805 49.2126C163.164 46.1657 162.344 42.6501 162.344 38.6658C162.344 34.6346 163.164 31.0955 164.805 28.0487C166.445 25.0018 168.742 22.6581 171.695 21.0174C174.648 19.3768 178.047 18.5565 181.891 18.5565C185.594 18.5565 188.898 19.3534 191.805 20.9471C194.758 22.5409 197.031 24.8143 198.625 27.7674C200.265 30.6736 201.086 34.0252 201.086 37.822ZM190.891 35.0096C190.844 32.4783 189.93 30.4627 188.148 28.9627C186.367 27.4158 184.187 26.6424 181.609 26.6424C179.172 26.6424 177.109 27.3924 175.422 28.8924C173.781 30.3455 172.773 32.3846 172.398 35.0096H190.891Z" fill="black"/>
<path d="M205.74 38.6658C205.74 34.6346 206.56 31.119 208.2 28.119C209.841 25.0721 212.115 22.7284 215.021 21.0878C217.927 19.4003 221.255 18.5565 225.005 18.5565C229.833 18.5565 233.818 19.7753 236.958 22.2127C240.146 24.6034 242.278 27.9783 243.357 32.3377H232.739C232.177 30.6502 231.216 29.3377 229.857 28.4002C228.544 27.4158 226.904 26.9237 224.935 26.9237C222.122 26.9237 219.896 27.9549 218.255 30.0174C216.615 32.033 215.794 34.9158 215.794 38.6658C215.794 42.3689 216.615 45.2517 218.255 47.3142C219.896 49.3298 222.122 50.3376 224.935 50.3376C228.919 50.3376 231.521 48.5564 232.739 44.9939H243.357C242.278 49.2126 240.146 52.5641 236.958 55.0485C233.771 57.5329 229.786 58.7751 225.005 58.7751C221.255 58.7751 217.927 57.9547 215.021 56.3141C212.115 54.6266 209.841 52.2829 208.2 49.2829C206.56 46.2361 205.74 42.697 205.74 38.6658Z" fill="black"/>
<path d="M262.029 27.2752V46.1189C262.029 47.4314 262.333 48.3923 262.943 49.0017C263.599 49.5642 264.677 49.8454 266.177 49.8454H270.748V58.1422H264.56C256.263 58.1422 252.115 54.111 252.115 46.0486V27.2752H247.474V19.1893H252.115V9.55656H262.029V19.1893H270.748V27.2752H262.029Z" fill="black"/>
<path d="M282.82 14.5487C281.085 14.5487 279.632 14.0097 278.46 12.9315C277.335 11.8065 276.773 10.4237 276.773 8.78313C276.773 7.14251 277.335 5.78314 278.46 4.70502C279.632 3.58003 281.085 3.01753 282.82 3.01753C284.554 3.01753 285.984 3.58003 287.109 4.70502C288.281 5.78314 288.867 7.14251 288.867 8.78313C288.867 10.4237 288.281 11.8065 287.109 12.9315C285.984 14.0097 284.554 14.5487 282.82 14.5487ZM287.671 19.1893V58.1422H277.828V19.1893H287.671Z" fill="black"/>
<path d="M313.639 49.072L323.483 19.1893H333.959L319.545 58.1422H307.592L293.249 19.1893H303.795L313.639 49.072Z" fill="black"/>
<path d="M375.699 37.822C375.699 39.2283 375.605 40.4939 375.418 41.6189H346.941C347.176 44.4314 348.16 46.6345 349.894 48.2282C351.629 49.822 353.761 50.6188 356.293 50.6188C359.949 50.6188 362.55 49.0485 364.097 45.9079H374.714C373.589 49.6579 371.433 52.7516 368.246 55.1891C365.058 57.5797 361.144 58.7751 356.504 58.7751C352.754 58.7751 349.379 57.9547 346.379 56.3141C343.426 54.6266 341.105 52.2595 339.418 49.2126C337.777 46.1657 336.957 42.6501 336.957 38.6658C336.957 34.6346 337.777 31.0955 339.418 28.0487C341.058 25.0018 343.355 22.6581 346.308 21.0174C349.261 19.3768 352.66 18.5565 356.504 18.5565C360.207 18.5565 363.511 19.3534 366.418 20.9471C369.371 22.5409 371.644 24.8143 373.238 27.7674C374.878 30.6736 375.699 34.0252 375.699 37.822ZM365.504 35.0096C365.457 32.4783 364.543 30.4627 362.761 28.9627C360.98 27.4158 358.8 26.6424 356.222 26.6424C353.785 26.6424 351.722 27.3924 350.035 28.8924C348.394 30.3455 347.386 32.3846 347.011 35.0096H365.504Z" fill="black"/>
</svg>
