<svg width="121" height="59" viewBox="0 0 121 59" fill="none" xmlns="http://www.w3.org/2000/svg">
<g filter="url(#filter0_d_106_31)">
<rect x="6" width="109" height="48.2115" rx="6.28846" fill="white"/>
</g>
<path d="M50.9568 14.6756C50.7899 14.3682 50.5484 14.1354 50.2322 13.9773C49.9247 13.8104 49.5602 13.7269 49.1386 13.7269C48.4095 13.7269 47.8254 13.9685 47.3862 14.4516C46.947 14.9259 46.7274 15.5628 46.7274 16.3621C46.7274 17.2141 46.9558 17.8817 47.4125 18.3648C47.8781 18.8392 48.5149 19.0763 49.323 19.0763C49.8764 19.0763 50.342 18.9358 50.7197 18.6547C51.1062 18.3736 51.3872 17.9696 51.5629 17.4425H48.7038V15.7824H53.6052V17.8773C53.4383 18.4395 53.1528 18.9621 52.7487 19.4453C52.3535 19.9284 51.8484 20.3192 51.2335 20.6179C50.6187 20.9166 49.9247 21.0659 49.1517 21.0659C48.2382 21.0659 47.4213 20.8682 46.701 20.473C45.9895 20.0689 45.4318 19.5111 45.0277 18.7996C44.6324 18.0881 44.4348 17.2756 44.4348 16.3621C44.4348 15.4486 44.6324 14.6361 45.0277 13.9246C45.4318 13.2043 45.9895 12.6465 46.701 12.2513C47.4125 11.8472 48.225 11.6452 49.1386 11.6452C50.2453 11.6452 51.1764 11.9131 51.9318 12.4489C52.696 12.9847 53.2011 13.7269 53.4471 14.6756H50.9568ZM58.1998 21.1054C57.4796 21.1054 56.8295 20.9517 56.2498 20.6443C55.6789 20.3368 55.2265 19.8976 54.8927 19.3267C54.5677 18.7557 54.4052 18.0881 54.4052 17.3239C54.4052 16.5685 54.5721 15.9053 54.9059 15.3344C55.2397 14.7547 55.6964 14.3111 56.2762 14.0036C56.8559 13.6962 57.5059 13.5425 58.2262 13.5425C58.9465 13.5425 59.5965 13.6962 60.1762 14.0036C60.7559 14.3111 61.2127 14.7547 61.5465 15.3344C61.8803 15.9053 62.0472 16.5685 62.0472 17.3239C62.0472 18.0794 61.8759 18.7469 61.5333 19.3267C61.1995 19.8976 60.7384 20.3368 60.1499 20.6443C59.5701 20.9517 58.9201 21.1054 58.1998 21.1054ZM58.1998 19.1554C58.6302 19.1554 58.9948 18.9973 59.2934 18.6811C59.6009 18.3648 59.7546 17.9125 59.7546 17.3239C59.7546 16.7354 59.6053 16.2831 59.3066 15.9668C59.0167 15.6506 58.6566 15.4925 58.2262 15.4925C57.787 15.4925 57.4225 15.6506 57.1326 15.9668C56.8427 16.2743 56.6978 16.7266 56.6978 17.3239C56.6978 17.9125 56.8383 18.3648 57.1194 18.6811C57.4093 18.9973 57.7694 19.1554 58.1998 19.1554ZM66.5891 21.1054C65.8689 21.1054 65.2188 20.9517 64.6391 20.6443C64.0682 20.3368 63.6158 19.8976 63.282 19.3267C62.957 18.7557 62.7945 18.0881 62.7945 17.3239C62.7945 16.5685 62.9614 15.9053 63.2952 15.3344C63.629 14.7547 64.0857 14.3111 64.6655 14.0036C65.2452 13.6962 65.8952 13.5425 66.6155 13.5425C67.3358 13.5425 67.9858 13.6962 68.5655 14.0036C69.1452 14.3111 69.602 14.7547 69.9358 15.3344C70.2696 15.9053 70.4365 16.5685 70.4365 17.3239C70.4365 18.0794 70.2652 18.7469 69.9226 19.3267C69.5888 19.8976 69.1277 20.3368 68.5392 20.6443C67.9594 20.9517 67.3094 21.1054 66.5891 21.1054ZM66.5891 19.1554C67.0195 19.1554 67.3841 18.9973 67.6827 18.6811C67.9902 18.3648 68.1439 17.9125 68.1439 17.3239C68.1439 16.7354 67.9945 16.2831 67.6959 15.9668C67.406 15.6506 67.0459 15.4925 66.6155 15.4925C66.1763 15.4925 65.8118 15.6506 65.5219 15.9668C65.232 16.2743 65.0871 16.7266 65.0871 17.3239C65.0871 17.9125 65.2276 18.3648 65.5087 18.6811C65.7986 18.9973 66.1587 19.1554 66.5891 19.1554ZM74.425 13.5425C74.9433 13.5425 75.3957 13.6479 75.7821 13.8587C76.1774 14.0695 76.4805 14.3462 76.6913 14.6888V13.6479H78.9443V20.9868C78.9443 21.6632 78.8082 22.2737 78.5359 22.8183C78.2724 23.3716 77.8639 23.8108 77.3105 24.1358C76.7659 24.4609 76.0852 24.6234 75.2683 24.6234C74.1791 24.6234 73.2963 24.3642 72.6199 23.846C71.9436 23.3365 71.5571 22.6426 71.4605 21.7642H73.6872C73.7575 22.0453 73.9244 22.2649 74.1879 22.423C74.4514 22.5899 74.7764 22.6733 75.1629 22.6733C75.6284 22.6733 75.9974 22.5372 76.2697 22.2649C76.5507 22.0014 76.6913 21.5753 76.6913 20.9868V19.9459C76.4717 20.2885 76.1686 20.5696 75.7821 20.7892C75.3957 21 74.9433 21.1054 74.425 21.1054C73.8189 21.1054 73.27 20.9517 72.7781 20.6443C72.2862 20.328 71.8953 19.8844 71.6054 19.3135C71.3243 18.7338 71.1838 18.0662 71.1838 17.3108C71.1838 16.5554 71.3243 15.8922 71.6054 15.3212C71.8953 14.7503 72.2862 14.3111 72.7781 14.0036C73.27 13.6962 73.8189 13.5425 74.425 13.5425ZM76.6913 17.3239C76.6913 16.7618 76.5332 16.3182 76.2169 15.9932C75.9095 15.6682 75.5318 15.5057 75.0838 15.5057C74.6359 15.5057 74.2538 15.6682 73.9375 15.9932C73.6301 16.3094 73.4764 16.7486 73.4764 17.3108C73.4764 17.8729 73.6301 18.3209 73.9375 18.6547C74.2538 18.9797 74.6359 19.1422 75.0838 19.1422C75.5318 19.1422 75.9095 18.9797 76.2169 18.6547C76.5332 18.3297 76.6913 17.8861 76.6913 17.3239ZM82.8274 11.2499V21H80.5743V11.2499H82.8274ZM91.3907 17.2054C91.3907 17.4162 91.3775 17.6358 91.3511 17.8642H86.2521C86.2872 18.3209 86.4322 18.6723 86.6869 18.9182C86.9504 19.1554 87.271 19.274 87.6487 19.274C88.2109 19.274 88.6018 19.0368 88.8214 18.5625H91.2194C91.0964 19.0456 90.8724 19.4804 90.5474 19.8669C90.2312 20.2534 89.8315 20.5564 89.3484 20.776C88.8653 20.9956 88.3251 21.1054 87.7278 21.1054C87.0075 21.1054 86.3663 20.9517 85.8041 20.6443C85.2419 20.3368 84.8027 19.8976 84.4865 19.3267C84.1703 18.7557 84.0122 18.0881 84.0122 17.3239C84.0122 16.5597 84.1659 15.8922 84.4734 15.3212C84.7896 14.7503 85.2288 14.3111 85.7909 14.0036C86.3531 13.6962 86.9987 13.5425 87.7278 13.5425C88.4393 13.5425 89.0717 13.6918 89.6251 13.9905C90.1785 14.2891 90.6089 14.7151 90.9163 15.2685C91.2326 15.8219 91.3907 16.4675 91.3907 17.2054ZM89.0849 16.6125C89.0849 16.226 88.9531 15.9185 88.6896 15.6901C88.4261 15.4618 88.0967 15.3476 87.7014 15.3476C87.3237 15.3476 87.0031 15.4574 86.7396 15.677C86.4849 15.8966 86.3268 16.2084 86.2653 16.6125H89.0849Z" fill="black"/>
<path d="M71.0682 36.0525C71.0235 35.8457 70.9452 35.6919 70.8334 35.5913C70.7216 35.4851 70.5623 35.432 70.3555 35.432C70.0369 35.432 69.8077 35.5718 69.6679 35.8513C69.5282 36.1252 69.4555 36.5612 69.4499 37.1593C69.5729 36.9636 69.749 36.8099 69.9782 36.6981C70.2129 36.5863 70.4701 36.5304 70.7496 36.5304C71.2974 36.5304 71.7361 36.7037 72.0659 37.0503C72.4013 37.3968 72.569 37.8803 72.569 38.5008C72.569 38.9088 72.4852 39.2666 72.3175 39.574C72.1554 39.8815 71.915 40.1218 71.5964 40.2951C71.2834 40.4684 70.9117 40.555 70.4813 40.555C69.6204 40.555 69.0223 40.2867 68.6869 39.7501C68.3516 39.2079 68.1839 38.4309 68.1839 37.4192C68.1839 36.3571 68.3599 35.569 68.7121 35.0547C69.0698 34.5349 69.64 34.2749 70.4226 34.2749C70.8418 34.2749 71.1939 34.3588 71.479 34.5265C71.7697 34.6886 71.9877 34.9038 72.133 35.1721C72.2839 35.4404 72.3734 35.7339 72.4013 36.0525H71.0682ZM70.4058 37.6623C70.1654 37.6623 69.9642 37.735 69.8021 37.8803C69.6456 38.0201 69.5673 38.2213 69.5673 38.484C69.5673 38.7523 69.64 38.9619 69.7853 39.1129C69.9363 39.2638 70.1487 39.3393 70.4226 39.3393C70.6685 39.3393 70.8614 39.2666 71.0011 39.1213C71.1464 38.9703 71.2191 38.7663 71.2191 38.5092C71.2191 38.2465 71.1492 38.0396 71.0095 37.8887C70.8697 37.7378 70.6685 37.6623 70.4058 37.6623ZM76.7331 36.6226C76.9008 36.3655 77.1104 36.1643 77.3619 36.0189C77.6135 35.868 77.893 35.7926 78.2004 35.7926V37.3102H77.8063C77.4486 37.3102 77.1803 37.3884 77.0014 37.5449C76.8225 37.6959 76.7331 37.9642 76.7331 38.3499V40.5215H75.2993V35.8429H76.7331V36.6226ZM83.296 38.1067C83.296 38.2409 83.2876 38.3806 83.2709 38.5259H80.026C80.0484 38.8166 80.1406 39.0402 80.3027 39.1967C80.4704 39.3476 80.6744 39.4231 80.9148 39.4231C81.2725 39.4231 81.5213 39.2722 81.661 38.9703H83.187C83.1088 39.2778 82.9662 39.5545 82.7594 39.8004C82.5582 40.0464 82.3038 40.2392 81.9964 40.3789C81.689 40.5187 81.3452 40.5886 80.9651 40.5886C80.5067 40.5886 80.0987 40.4907 79.7409 40.2951C79.3832 40.0995 79.1037 39.82 78.9025 39.4566C78.7013 39.0933 78.6006 38.6685 78.6006 38.1822C78.6006 37.6959 78.6985 37.271 78.8941 36.9077C79.0953 36.5444 79.3748 36.2649 79.7326 36.0693C80.0903 35.8736 80.5012 35.7758 80.9651 35.7758C81.4179 35.7758 81.8203 35.8708 82.1725 36.0609C82.5246 36.2509 82.7985 36.522 82.9942 36.8742C83.1954 37.2263 83.296 37.6372 83.296 38.1067ZM81.8287 37.7294C81.8287 37.4835 81.7449 37.2878 81.5772 37.1425C81.4095 36.9972 81.1999 36.9245 80.9483 36.9245C80.708 36.9245 80.5039 36.9944 80.3363 37.1341C80.1742 37.2738 80.0735 37.4723 80.0344 37.7294H81.8287ZM86.1569 39.1799L87.1715 35.8429H88.6975L87.0373 40.5215H85.2682L83.608 35.8429H85.1424L86.1569 39.1799ZM90.0221 35.3566C89.7705 35.3566 89.5637 35.2839 89.4016 35.1386C89.2451 34.9876 89.1668 34.8032 89.1668 34.5852C89.1668 34.3616 89.2451 34.1771 89.4016 34.0318C89.5637 33.8809 89.7705 33.8054 90.0221 33.8054C90.268 33.8054 90.4692 33.8809 90.6257 34.0318C90.7879 34.1771 90.8689 34.3616 90.8689 34.5852C90.8689 34.8032 90.7879 34.9876 90.6257 35.1386C90.4692 35.2839 90.268 35.3566 90.0221 35.3566ZM90.7347 35.8429V40.5215H89.301V35.8429H90.7347ZM96.1841 38.1067C96.1841 38.2409 96.1757 38.3806 96.1589 38.5259H92.9141C92.9365 38.8166 93.0287 39.0402 93.1908 39.1967C93.3585 39.3476 93.5625 39.4231 93.8029 39.4231C94.1606 39.4231 94.4094 39.2722 94.5491 38.9703H96.0751C95.9968 39.2778 95.8543 39.5545 95.6475 39.8004C95.4462 40.0464 95.1919 40.2392 94.8845 40.3789C94.577 40.5187 94.2333 40.5886 93.8532 40.5886C93.3948 40.5886 92.9868 40.4907 92.629 40.2951C92.2713 40.0995 91.9918 39.82 91.7906 39.4566C91.5893 39.0933 91.4887 38.6685 91.4887 38.1822C91.4887 37.6959 91.5865 37.271 91.7822 36.9077C91.9834 36.5444 92.2629 36.2649 92.6206 36.0693C92.9784 35.8736 93.3892 35.7758 93.8532 35.7758C94.3059 35.7758 94.7084 35.8708 95.0606 36.0609C95.4127 36.2509 95.6866 36.522 95.8822 36.8742C96.0835 37.2263 96.1841 37.6372 96.1841 38.1067ZM94.7168 37.7294C94.7168 37.4835 94.6329 37.2878 94.4652 37.1425C94.2976 36.9972 94.0879 36.9245 93.8364 36.9245C93.596 36.9245 93.392 36.9944 93.2243 37.1341C93.0622 37.2738 92.9616 37.4723 92.9225 37.7294H94.7168ZM103.657 35.8429L102.39 40.5215H100.806L100.068 37.4863L99.3049 40.5215H97.7286L96.4542 35.8429H97.8879L98.5503 39.1883L99.3385 35.8429H100.856L101.653 39.1716L102.307 35.8429H103.657ZM106.107 40.5886C105.699 40.5886 105.335 40.5187 105.017 40.3789C104.698 40.2392 104.446 40.0492 104.262 39.8088C104.078 39.5628 103.974 39.2889 103.952 38.9871H105.369C105.386 39.1492 105.461 39.2806 105.595 39.3812C105.729 39.4818 105.894 39.5321 106.09 39.5321C106.269 39.5321 106.406 39.4986 106.501 39.4315C106.601 39.3588 106.652 39.2666 106.652 39.1548C106.652 39.0206 106.582 38.9228 106.442 38.8613C106.302 38.7943 106.076 38.7216 105.763 38.6433C105.427 38.5651 105.148 38.484 104.924 38.4002C104.701 38.3107 104.508 38.1738 104.346 37.9893C104.184 37.7993 104.103 37.5449 104.103 37.2263C104.103 36.958 104.175 36.7149 104.321 36.4969C104.472 36.2733 104.69 36.0972 104.975 35.9686C105.265 35.8401 105.609 35.7758 106.006 35.7758C106.593 35.7758 107.054 35.9211 107.389 36.2118C107.73 36.5025 107.926 36.8882 107.976 37.3689H106.652C106.629 37.2068 106.557 37.0782 106.434 36.9832C106.316 36.8882 106.16 36.8406 105.964 36.8406C105.796 36.8406 105.668 36.8742 105.578 36.9413C105.489 37.0027 105.444 37.0894 105.444 37.2012C105.444 37.3353 105.514 37.4359 105.654 37.503C105.799 37.5701 106.023 37.6372 106.325 37.7043C106.671 37.7937 106.953 37.8831 107.171 37.9726C107.389 38.0564 107.58 38.1962 107.742 38.3918C107.909 38.5818 107.996 38.839 108.002 39.1632C108.002 39.4371 107.923 39.683 107.767 39.901C107.616 40.1134 107.395 40.2811 107.104 40.4041C106.819 40.5271 106.487 40.5886 106.107 40.5886Z" fill="black"/>
<path d="M101.383 18.8848L107.665 12.6028M107.665 12.6028H103.709M107.665 12.6028V16.558" stroke="black" stroke-width="1.23381"/>
<path d="M102.879 12.6028H101.494C100.813 12.6028 100.261 13.1552 100.261 13.8366V18.7722C100.261 19.4536 100.813 20.006 101.494 20.006H106.43C107.111 20.006 107.664 19.4536 107.664 18.7722V17.2975" stroke="black" stroke-width="1.23381"/>
<path d="M14.3632 39.0424V37.72L17.3913 33.3887H19.2215V37.6242H20.0073V39.0424H19.2215V40.2881H17.5829V39.0424H14.3632ZM17.6979 35.1902L16.0881 37.6242H17.6979V35.1902ZM21.7394 40.3647C21.4519 40.3647 21.2155 40.2817 21.0303 40.1156C20.8514 39.9431 20.762 39.7323 20.762 39.4832C20.762 39.2276 20.8514 39.0136 21.0303 38.8411C21.2155 38.6687 21.4519 38.5824 21.7394 38.5824C22.0204 38.5824 22.2504 38.6687 22.4293 38.8411C22.6146 39.0136 22.7072 39.2276 22.7072 39.4832C22.7072 39.7323 22.6146 39.9431 22.4293 40.1156C22.2504 40.2817 22.0204 40.3647 21.7394 40.3647ZM23.5143 36.6947C23.5143 35.5959 23.7251 34.7303 24.1467 34.0978C24.5747 33.4654 25.2615 33.1492 26.2069 33.1492C27.1524 33.1492 27.8359 33.4654 28.2576 34.0978C28.6856 34.7303 28.8996 35.5959 28.8996 36.6947C28.8996 37.8062 28.6856 38.6782 28.2576 39.3107C27.8359 39.9431 27.1524 40.2593 26.2069 40.2593C25.2615 40.2593 24.5747 39.9431 24.1467 39.3107C23.7251 38.6782 23.5143 37.8062 23.5143 36.6947ZM27.2897 36.6947C27.2897 36.0495 27.2195 35.5544 27.0789 35.2094C26.9384 34.858 26.6477 34.6824 26.2069 34.6824C25.7661 34.6824 25.4755 34.858 25.3349 35.2094C25.1944 35.5544 25.1241 36.0495 25.1241 36.6947C25.1241 37.1291 25.1497 37.49 25.2008 37.7775C25.2519 38.0586 25.3541 38.2886 25.5074 38.4674C25.6671 38.6399 25.9003 38.7262 26.2069 38.7262C26.5136 38.7262 26.7436 38.6399 26.8969 38.4674C27.0566 38.2886 27.162 38.0586 27.2131 37.7775C27.2642 37.49 27.2897 37.1291 27.2897 36.6947ZM33.5791 31.1848L31.011 42.08H29.4299L31.998 31.1848H33.5791ZM39.0327 34.7207H36.043V36.0431C36.1708 35.9025 36.3496 35.7875 36.5796 35.6981C36.8096 35.6087 37.0587 35.564 37.327 35.564C37.8062 35.564 38.2022 35.6726 38.5153 35.8898C38.8347 36.107 39.0678 36.388 39.2148 36.733C39.3617 37.078 39.4352 37.4517 39.4352 37.8542C39.4352 38.6016 39.2244 39.1957 38.8027 39.6365C38.3811 40.0709 37.787 40.2881 37.0204 40.2881C36.5093 40.2881 36.0653 40.2018 35.6884 40.0294C35.3115 39.8505 35.0209 39.6045 34.8164 39.2915C34.612 38.9785 34.5002 38.6176 34.4811 38.2087H36.0813C36.1196 38.4067 36.2123 38.5728 36.3592 38.707C36.5061 38.8348 36.7074 38.8986 36.9629 38.8986C37.2631 38.8986 37.4867 38.8028 37.6337 38.6112C37.7806 38.4195 37.8541 38.164 37.8541 37.8446C37.8541 37.5315 37.7774 37.292 37.6241 37.1259C37.4708 36.9598 37.2472 36.8767 36.9533 36.8767C36.7361 36.8767 36.5572 36.931 36.4167 37.0396C36.2762 37.1419 36.1835 37.2792 36.1388 37.4517H34.5577V33.2833H39.0327V34.7207Z" fill="black"/>
<circle cx="22.7363" cy="15.6883" r="12.5438" fill="#D9D9D9"/>
<path d="M17.8947 17.4958C17.9784 17.6912 18.053 17.8911 18.1474 18.0815C19.0328 19.8689 20.4372 20.9863 22.4216 21.2687C23.8706 21.4747 25.2441 21.187 26.4551 20.3269C27.3584 19.6854 27.9072 18.7963 28.1465 17.713C28.1762 17.5775 28.1454 17.5479 28.0118 17.5482C26.4354 17.5521 24.8587 17.5496 23.2823 17.5535C23.1707 17.5535 23.134 17.5312 23.1345 17.4113C23.1393 16.3059 23.139 15.2005 23.1345 14.0948C23.134 13.9813 23.1685 13.959 23.2745 13.959C26.075 13.9621 28.8755 13.9623 31.6763 13.959C31.7874 13.959 31.8224 13.9916 31.8402 14.0995C32.0322 15.2543 32.04 16.4093 31.8647 17.5663C31.6833 18.7635 31.3037 19.8903 30.6807 20.9313C30.2752 21.6085 29.7799 22.2116 29.1975 22.7446C27.7922 24.0315 26.1129 24.6803 24.2426 24.8816C22.8401 25.0327 21.4632 24.9089 20.1298 24.4372C17.8254 23.6223 16.1021 22.1226 14.9453 19.9684C14.9216 19.9243 14.8882 19.8828 14.8882 19.8287C15.1885 19.5968 15.4893 19.3651 15.789 19.1326C16.4914 18.5873 17.1932 18.0414 17.8952 17.4955L17.8947 17.4958Z" fill="black"/>
<path d="M17.8947 17.4958C17.1926 18.0414 16.4908 18.5875 15.7884 19.1328C15.4887 19.3656 15.1879 19.597 14.8877 19.829C14.6247 19.3509 14.436 18.8423 14.2808 18.3216C13.9265 17.1325 13.811 15.9183 13.9524 14.6855C14.1678 12.8037 14.8765 11.129 16.1079 9.68648C17.3317 8.25292 18.8542 7.27826 20.6682 6.77001C21.8703 6.43323 23.0939 6.35545 24.3328 6.51157C26.1919 6.74632 27.8139 7.49739 29.2072 8.75112C29.2971 8.83197 29.2929 8.87184 29.2108 8.95325C28.408 9.75143 27.608 10.5527 26.8116 11.3573C26.7287 11.4409 26.6858 11.4328 26.6023 11.3581C25.5051 10.3798 24.2109 9.93934 22.758 10.0762C20.3877 10.2993 18.8046 11.5984 17.9478 13.7953C17.4937 14.9599 17.4987 16.1534 17.8588 17.3472C17.8735 17.396 17.883 17.4461 17.895 17.4958L17.8947 17.4958Z" fill="black"/>
<defs>
<filter id="filter0_d_106_31" x="0.925637" y="0" width="119.149" height="58.3602" filterUnits="userSpaceOnUse" color-interpolation-filters="sRGB">
<feFlood flood-opacity="0" result="BackgroundImageFix"/>
<feColorMatrix in="SourceAlpha" type="matrix" values="0 0 0 0 0 0 0 0 0 0 0 0 0 0 0 0 0 0 127 0" result="hardAlpha"/>
<feOffset dy="5.07436"/>
<feGaussianBlur stdDeviation="2.53718"/>
<feComposite in2="hardAlpha" operator="out"/>
<feColorMatrix type="matrix" values="0 0 0 0 0 0 0 0 0 0 0 0 0 0 0 0 0 0 0.25 0"/>
<feBlend mode="normal" in2="BackgroundImageFix" result="effect1_dropShadow_106_31"/>
<feBlend mode="normal" in="SourceGraphic" in2="effect1_dropShadow_106_31" result="shape"/>
</filter>
</defs>
</svg>
