<svg width="22" height="17" viewBox="0 0 22 17" fill="none" xmlns="http://www.w3.org/2000/svg">
<path d="M4.14099 5.32286C4.43393 5.51892 4.72571 5.71382 5.01864 5.90988C5.45689 6.20281 5.89629 6.49229 6.33223 6.78753C6.71397 7.04586 6.81315 7.45989 6.5871 7.80703C6.3576 8.15878 5.92512 8.22567 5.53185 7.96388C4.14214 7.0401 2.75359 6.11516 1.36619 5.18677C0.882967 4.8627 0.876047 4.27452 1.35697 3.95276C2.76167 3.00937 4.16982 2.07291 5.57914 1.13759C5.94357 0.896559 6.37375 0.980748 6.59633 1.32327C6.81315 1.65657 6.72665 2.07752 6.37259 2.3174C5.69792 2.77526 5.01633 3.22388 4.33705 3.67712C4.27131 3.72095 4.20904 3.76823 4.09025 3.85358C4.23787 3.85358 4.32321 3.85358 4.40855 3.85358C8.06792 3.85358 11.7273 3.84435 15.3867 3.85819C18.2456 3.86857 20.6768 6.09556 20.9685 8.93609C21.2845 12.02 19.1879 14.7244 16.1109 15.1961C15.841 15.2376 15.5643 15.2515 15.2898 15.2515C11.7423 15.2549 8.19363 15.2549 4.64613 15.2538C4.07987 15.2538 3.71658 14.7855 3.90342 14.2954C4.01067 14.0128 4.22633 13.8595 4.52619 13.8318C4.6 13.8249 4.67496 13.8295 4.74877 13.8295C8.22938 13.8295 11.7111 13.8318 15.1917 13.8295C17.3392 13.8283 19.0552 12.4086 19.4658 10.3039C19.9248 7.95004 18.1961 5.59273 15.8065 5.3194C15.615 5.29749 15.4224 5.28134 15.2298 5.28134C11.6004 5.27903 7.97104 5.28019 4.34051 5.28019C4.27823 5.28019 4.2148 5.28019 4.15252 5.28019C4.14791 5.29518 4.14445 5.31017 4.13984 5.32401L4.14099 5.32286Z" fill="black" stroke="black" stroke-width="1.6" stroke-miterlimit="10" stroke-linejoin="round"/>
</svg>
